<?xml version='1.0' encoding='utf-8'?>
<svg xmlns="http://www.w3.org/2000/svg" version="1.1" viewBox="179.2961 136.9793 19.242699999999985 19.424800000000033"><path d="M0 0C.031-.277 .202-.645 .367-.872 1.232-2.068 2.874-1.815 4.112-2.295 4.971-2.628 6.251-3.541 6.363-4.532 6.385-4.726 6.268-4.915 6.344-5.105 6.746-4.767 6.738-4.249 6.654-3.77 6.413-2.396 5.279-1.635 4.606-.52 4.088 .338 3.835 1.27 2.906 1.795 2.542 2.001 2.167 2.124 1.752 2.178 2.483 2.618 3.309 2.932 4.143 3.119 5.36 3.393 6.779 3.391 7.999 3.129 8.162 3.094 8.324 3.001 8.501 3.012 8.516 2.937 8.482 2.925 8.427 2.893 8.02 2.655 7.764 2.662 7.411 2.243 6.095 .68 7.579-1.703 7.348-3.631 7.262-4.349 6.937-5.475 6.066-5.489V-5.618H6.686C6.828-5.618 7.324-5.298 7.454-5.189 8.27-4.507 8.482-3.599 8.865-2.67 9.453-1.245 10.99-.181 10.626 1.527 10.578 1.75 10.459 1.899 10.424 2.115 10.511 2.067 10.607 2.03 10.693 1.978 11.058 1.757 11.474 1.402 11.791 1.112 12.914 .083 13.81-1.284 14.225-2.755 13.972-2.689 13.747-2.514 13.491-2.443 11.463-1.877 10.46-4.062 9.07-5.055 8.352-5.567 6.893-6.356 6.052-5.781 5.77-5.589 5.949-5.538 5.972-5.33 5.979-5.269 5.942-5.214 5.946-5.169 5.955-5.065 6.002-4.962 5.98-4.848L6.152-4.849C6.133-3.968 5.084-3.585 4.336-3.524 3.212-3.434 2.292-4.008 1.212-4.159-.035-4.333-1.281-3.954-2.243-5.061-2.286-5.11-2.494-5.479-2.563-5.404-2.623-3.607-1.995-1.809-.975-.349-.868-.196-.125 .738-.021 .747 .084 .756 0 .646 0 .641 0 .441-.022 .19 0 0" transform="matrix(1,0,0,-1,182.9191,141.3723)" fill="#000000" /><path d="M0 0C.01-2.198-.791-4.498-2.349-6.066-2.223-5.231-2.506-4.476-3.16-3.951-4.14-3.163-5.608-3.267-6.779-2.784-7.519-2.479-8.805-1.56-9.116-.807-9.258-.465-9.17-.159-9.057 .171-9.725-.056-9.469-1.197-9.291-1.708-8.908-2.809-8.139-3.442-7.411-4.271-6.502-5.305-6.186-6.887-4.7-7.327L-4.016-7.454C-4.026-7.562-4.929-7.987-5.084-8.052-5.853-8.376-6.758-8.646-7.587-8.752-8.62-8.884-9.714-8.775-10.722-8.543-10.738-8.448-10.721-8.475-10.668-8.449-10.565-8.397-10.433-8.379-10.322-8.325-9.642-7.992-9.195-6.991-9.227-6.258-9.267-5.338-9.691-4.366-9.881-3.452-10.084-2.478-10.404-.2-9.251 .301-9.198 .324-8.848 .358-9.015 .49-9.265 .688-9.846 .347-10.059 .17-11.102-.693-11.187-1.823-11.588-3-12.063-4.392-13.429-5.548-12.955-7.166-12.903-7.342-12.808-7.475-12.773-7.646-12.796-7.67-13.141-7.482-13.195-7.449-14.653-6.555-15.84-5.067-16.51-3.502-16.579-3.179-16.797-2.848-16.87-2.537-16.885-2.475-16.873-2.465-16.809-2.477-16.744-2.489-16.516-2.694-16.405-2.756-16.243-2.846-15.963-2.963-15.781-2.987-13.683-3.261-12.97-1.064-11.597 .042-10.852 .642-9.652 1.306-8.777 .599L-8.755 .534C-8.802 .416-8.781 .27-8.809 .159-8.853-.018-8.971-.177-8.971-.406-8.973-.881-8.216-1.273-7.818-1.389-6.474-1.78-5.441-1.278-4.16-1.115-2.811-.943-1.493-1.431-.362-.343-.308-.291-.059 .064 0 0" transform="matrix(1,0,0,-1,197.5288,146.5201)" fill="#000000" /></svg>