<?xml version='1.0' encoding='utf-8'?>
<svg xmlns="http://www.w3.org/2000/svg" version="1.1" width="336pt" height="280pt" viewBox="0 0 336 280">
<defs>
</defs>
<g id="layer_1" data-name="Layer 1">
<path transform="matrix(1,0,0,-1,87.9871,155.0889)" d="M0 0H-4.081L-1.272 13.201H-6.193L-5.425 16.801H8.496L7.729 13.201H2.808Z" />
<g>
<path transform="matrix(1,0,0,-1,101.2342,141.8877)" d="M0 0-2.04-9.602H.504C2.112-9.602 3.505-9.001 4.681-7.825 5.833-6.648 6.409-5.257 6.409-3.601 6.409-1.416 4.944 0 2.545 0ZM-6.889-13.201-3.312 3.6H3.433C5.545 3.6 7.272 2.952 8.617 1.656 9.961 .359 10.633-1.248 10.633-3.192 10.633-5.905 9.625-8.257 7.609-10.226 5.568-12.218 3.145-13.201 .336-13.201Z" />
<path transform="matrix(1,0,0,-1,115.9461,155.0889)" d="M0 0H-4.08L-.504 16.801H10.537L9.769 13.201H2.809L2.064 9.721H8.785L8.017 6.12H1.296Z" />
<path transform="matrix(1,0,0,-1,137.1853,141.8877)" d="M0 0V-3.961H3.36C4.585-3.961 5.377-3.145 5.377-1.992 5.377-.841 4.585 0 3.36 0ZM10.081-13.201H5.232L1.656-7.681H0V-13.201H-4.08V3.6H3.36C5.257 3.6 6.769 3.072 7.897 2.016 9.025 .96 9.602-.385 9.602-2.04 9.602-4.369 8.354-6.289 6.169-7.177Z" />
<path transform="matrix(1,0,0,-1,160.4666,155.0889)" d="M0 0H-11.521V16.801H0V13.201H-7.441V10.2H-.24V6.601H-7.441V3.6H0Z" />
<path transform="matrix(1,0,0,-1,202.2088,140.6636)" d="M0 0V-5.473H4.297C5.953-5.473 7.129-4.296 7.129-2.737 7.129-1.176 5.953 0 4.297 0ZM10.297-14.425H7.104L2.713-7.897H0V-14.425H-2.664V2.376H4.297C5.953 2.376 7.297 1.896 8.329 .936 9.361-.048 9.865-1.272 9.865-2.76 9.865-5.233 8.281-7.201 5.785-7.753Z" />
<path transform="matrix(1,0,0,-1,216.1766,139.5356)" d="M0 0V-14.305H4.272C6.312-14.305 7.992-13.609 9.36-12.241 10.729-10.874 11.4-9.193 11.4-7.153 11.4-5.113 10.729-3.409 9.36-2.041 7.992-.672 6.312 0 4.272 0ZM-1.345-15.553V1.248H4.296C6.721 1.248 8.736 .456 10.345-1.152 11.953-2.76 12.769-4.777 12.769-7.153 12.769-9.529 11.953-11.521 10.345-13.129 8.736-14.738 6.721-15.553 4.296-15.553Z" />
<path transform="matrix(1,0,0,-1,232.616,150.5283)" d="M0 0C.288-2.232 2.063-3.553 4.776-3.553 7.368-3.553 9.168-2.209 9.168-.312 9.168 4.824-.889 1.968-.889 8.112-.889 9.36-.385 10.393 .647 11.233 1.68 12.073 2.976 12.481 4.536 12.481 6.096 12.481 7.416 12.073 8.448 11.233 9.48 10.393 10.104 9.288 10.32 7.969L8.952 7.681C8.641 9.792 6.937 11.257 4.512 11.257 3.336 11.257 2.376 10.969 1.632 10.393 .863 9.792 .479 9.049 .479 8.16 .479 3.24 10.536 6.168 10.536-.312 10.536-1.633 9.984-2.688 8.88-3.528 7.776-4.369 6.408-4.801 4.752-4.801 1.392-4.801-.984-3.072-1.368-.288Z" />
<path transform="matrix(1,0,0,-1,197.5288,146.5201)" d="M0 0C.01-2.198-.791-4.498-2.349-6.066-2.223-5.231-2.506-4.476-3.16-3.951-4.14-3.163-5.608-3.267-6.779-2.784-7.519-2.479-8.805-1.56-9.116-.807-9.258-.465-9.17-.159-9.057 .171-9.725-.056-9.469-1.197-9.291-1.708-8.908-2.809-8.139-3.442-7.411-4.271-6.502-5.305-6.186-6.887-4.7-7.327L-4.016-7.454C-4.026-7.562-4.929-7.987-5.084-8.052-5.853-8.376-6.758-8.646-7.587-8.752-8.62-8.884-9.714-8.775-10.722-8.543-10.738-8.448-10.721-8.475-10.668-8.449-10.565-8.397-10.433-8.379-10.322-8.325-9.642-7.992-9.195-6.991-9.227-6.258-9.267-5.338-9.691-4.366-9.881-3.452-10.084-2.478-10.404-.2-9.251 .301-9.198 .324-8.848 .358-9.015 .49-9.265 .688-9.846 .347-10.059 .17-11.102-.693-11.187-1.823-11.588-3-12.063-4.392-13.429-5.548-12.955-7.166-12.903-7.342-12.808-7.475-12.773-7.646-12.796-7.67-13.141-7.482-13.195-7.449-14.653-6.555-15.84-5.067-16.51-3.502-16.579-3.179-16.797-2.848-16.87-2.537-16.885-2.475-16.873-2.465-16.809-2.477-16.744-2.489-16.516-2.694-16.405-2.756-16.243-2.846-15.963-2.963-15.781-2.987-13.683-3.261-12.97-1.064-11.597 .042-10.852 .642-9.652 1.306-8.777 .599L-8.755 .534C-8.802 .416-8.781 .27-8.809 .159-8.853-.018-8.971-.177-8.971-.406-8.973-.881-8.216-1.273-7.818-1.389-6.474-1.78-5.441-1.278-4.16-1.115-2.811-.943-1.493-1.431-.362-.343-.308-.291-.059 .064 0 0" />
<path transform="matrix(1,0,0,-1,182.9191,141.3723)" d="M0 0C.031-.277 .202-.645 .367-.872 1.232-2.068 2.874-1.815 4.112-2.295 4.971-2.628 6.251-3.541 6.363-4.532 6.385-4.726 6.268-4.915 6.344-5.105 6.746-4.767 6.738-4.249 6.654-3.77 6.413-2.396 5.279-1.635 4.606-.52 4.088 .338 3.835 1.27 2.906 1.795 2.542 2.001 2.167 2.124 1.752 2.178 2.483 2.618 3.309 2.932 4.143 3.119 5.36 3.393 6.779 3.391 7.999 3.129 8.162 3.094 8.324 3.001 8.501 3.012 8.516 2.937 8.482 2.925 8.427 2.893 8.02 2.655 7.764 2.662 7.411 2.243 6.095 .68 7.579-1.703 7.348-3.631 7.262-4.349 6.937-5.475 6.066-5.489V-5.618H6.686C6.828-5.618 7.324-5.298 7.454-5.189 8.27-4.507 8.482-3.599 8.865-2.67 9.453-1.245 10.99-.181 10.626 1.527 10.578 1.75 10.459 1.899 10.424 2.115 10.511 2.067 10.607 2.03 10.693 1.978 11.058 1.757 11.474 1.402 11.791 1.112 12.914 .083 13.81-1.284 14.225-2.755 13.972-2.689 13.747-2.514 13.491-2.443 11.463-1.877 10.46-4.062 9.07-5.055 8.352-5.567 6.893-6.356 6.052-5.781 5.77-5.589 5.949-5.538 5.972-5.33 5.979-5.269 5.942-5.214 5.946-5.169 5.955-5.065 6.002-4.962 5.98-4.848L6.152-4.849C6.133-3.968 5.084-3.585 4.336-3.524 3.212-3.434 2.292-4.008 1.212-4.159-.035-4.333-1.281-3.954-2.243-5.061-2.286-5.11-2.494-5.479-2.563-5.404-2.623-3.607-1.995-1.809-.975-.349-.868-.196-.125 .738-.021 .747 .084 .756 0 .646 0 .641 0 .441-.022 .19 0 0" />
<path transform="matrix(1,0,0,-1,120.1973,165.209)" d="M0 0C.104-.8 .728-1.256 1.687-1.256 2.151-1.256 2.526-1.144 2.822-.928 3.11-.712 3.254-.44 3.254-.097 3.254 1.727-.16 .751-.16 2.782-.16 3.19 .008 3.525 .335 3.798 .664 4.062 1.087 4.197 1.607 4.197 2.119 4.197 2.542 4.062 2.886 3.781 3.23 3.502 3.43 3.142 3.494 2.702L3.174 2.639C3.07 3.374 2.47 3.894 1.607 3.894 1.183 3.894 .839 3.79 .567 3.582 .295 3.374 .16 3.11 .16 2.782 .16 1.039 3.574 2.055 3.574-.097 3.574-.528 3.398-.88 3.038-1.151 2.678-1.424 2.223-1.56 1.687-1.56 .591-1.56-.192-.992-.32-.064Z" />
<path transform="matrix(1,0,0,-1,127.9722,166.6885)" d="M0 0H-.32V5.293H-2.319V5.597H1.999V5.293H0Z" />
<path transform="matrix(1,0,0,-1,132.1333,161.0918)" d="M0 0H.32V-3.598C.32-4.117 .496-4.549 .848-4.877 1.2-5.205 1.647-5.373 2.199-5.373 2.751-5.373 3.207-5.205 3.558-4.877 3.902-4.549 4.078-4.117 4.078-3.598V0H4.398V-3.598C4.398-4.214 4.19-4.709 3.782-5.093 3.375-5.484 2.847-5.677 2.199-5.677 1.56-5.677 1.032-5.484 .624-5.093 .208-4.701 0-4.205 0-3.598Z" />
<path transform="matrix(1,0,0,-1,139.4922,161.39551)" d="M0 0V-4.989H1.503C2.215-4.989 2.807-4.749 3.286-4.27 3.758-3.798 3.998-3.206 3.998-2.494 3.998-1.783 3.758-1.191 3.286-.712 2.807-.24 2.215 0 1.503 0ZM-.32-5.293V.304H1.503C2.303 .304 2.975 .04 3.51-.496 4.046-1.031 4.318-1.703 4.318-2.494 4.318-3.286 4.046-3.949 3.51-4.485 2.975-5.021 2.303-5.293 1.503-5.293Z" />
<path transform="matrix(1,0,0,-1,0,280)" d="M146.693 113.312H146.37299V118.909H146.693Z" />
<path transform="matrix(1,0,0,-1,149.5728,163.8896)" d="M0 0C0-.728 .248-1.336 .744-1.831 1.231-2.327 1.839-2.575 2.559-2.575 3.278-2.575 3.886-2.327 4.381-1.831 4.869-1.336 5.117-.728 5.117 0 5.117 .728 4.869 1.335 4.381 1.831 3.886 2.326 3.278 2.574 2.559 2.574 1.839 2.574 1.231 2.326 .744 1.831 .248 1.335 0 .728 0 0M-.32 0C-.32 .808-.04 1.495 .512 2.047 1.063 2.599 1.751 2.878 2.559 2.878 3.366 2.878 4.054 2.599 4.605 2.047 5.157 1.495 5.437 .808 5.437 0 5.437-.808 5.157-1.495 4.605-2.047 4.054-2.599 3.366-2.879 2.559-2.879 1.751-2.879 1.063-2.599 .512-2.047-.04-1.495-.32-.808-.32 0" />
<path transform="matrix(1,0,0,-1,164.8511,166.6885)" d="M0 0H-3.278V5.597H-2.958V.304H0Z" />
<path transform="matrix(1,0,0,-1,170.4502,166.6885)" d="M0 0H-3.278V5.597H0V5.293H-2.958V2.95H-.08V2.646H-2.958V.304H0Z" />
<path transform="matrix(1,0,0,-1,175.1396,163.7383)" d="M0 0H3.223C3.271-.855 3.015-1.567 2.463-2.15 1.911-2.734 1.231-3.03 .432-3.03-.376-3.03-1.063-2.75-1.615-2.198-2.167-1.646-2.446-.959-2.446-.151-2.446 .656-2.167 1.344-1.615 1.896-1.063 2.447-.376 2.727 .432 2.727 1.008 2.727 1.52 2.575 1.975 2.271 2.423 1.967 2.75 1.583 2.958 1.111L2.671 .976C2.278 1.839 1.423 2.423 .432 2.423-.288 2.423-.896 2.175-1.383 1.68-1.879 1.184-2.127 .576-2.127-.151-2.127-.879-1.879-1.487-1.383-1.982-.896-2.479-.288-2.727 .432-2.727 1.111-2.727 1.687-2.494 2.159-2.022 2.622-1.551 2.87-.983 2.902-.304H0Z" />
<path transform="matrix(1,0,0,-1,184.291,166.6885)" d="M0 0H-3.278V5.597H0V5.293H-2.958V2.95H-.08V2.646H-2.958V.304H0Z" />
<path transform="matrix(1,0,0,-1,191.0908,166.5762)" d="M0 0V5.484H.319V-.112H-.32L-3.918 5.373V-.112H-4.238V5.484H-3.599Z" />
<path transform="matrix(1,0,0,-1,194.4521,161.39551)" d="M0 0V-4.989H1.504C2.215-4.989 2.807-4.749 3.286-4.27 3.758-3.798 3.998-3.206 3.998-2.494 3.998-1.783 3.758-1.191 3.286-.712 2.807-.24 2.215 0 1.504 0ZM-.319-5.293V.304H1.504C2.303 .304 2.975 .04 3.511-.496 4.046-1.031 4.318-1.703 4.318-2.494 4.318-3.286 4.046-3.949 3.511-4.485 2.975-5.021 2.303-5.293 1.504-5.293Z" />
<path transform="matrix(1,0,0,-1,201.4922,165.209)" d="M0 0C.104-.8 .728-1.256 1.687-1.256 2.15-1.256 2.526-1.144 2.822-.928 3.11-.712 3.254-.44 3.254-.097 3.254 1.727-.16 .751-.16 2.782-.16 3.19 .008 3.525 .336 3.798 .663 4.062 1.087 4.197 1.606 4.197 2.118 4.197 2.542 4.062 2.886 3.781 3.23 3.502 3.43 3.142 3.494 2.702L3.174 2.639C3.07 3.374 2.471 3.894 1.606 3.894 1.184 3.894 .839 3.79 .567 3.582 .296 3.374 .16 3.11 .16 2.782 .16 1.039 3.574 2.055 3.574-.097 3.574-.528 3.397-.88 3.038-1.151 2.679-1.424 2.223-1.56 1.687-1.56 .592-1.56-.191-.992-.319-.064Z" />
<path transform="matrix(1,0,0,-1,162.229,146.688)" d="M0 0C0 2.424 .864 4.488 2.568 6.145 4.272 7.8 6.36 8.641 8.881 8.641 10.753 8.641 12.385 8.161 13.777 7.225 15.169 6.289 16.177 5.136 16.801 3.768L13.009 2.328C12.265 3.84 10.729 4.896 8.881 4.896 7.561 4.896 6.457 4.416 5.568 3.48 4.68 2.544 4.224 1.368 4.224 0 4.224-1.368 4.68-2.544 5.568-3.48 6.457-4.417 7.561-4.896 8.881-4.896 10.729-4.896 12.265-3.84 13.009-2.328L16.801-3.769C16.177-5.137 15.169-6.289 13.777-7.225 12.385-8.161 10.753-8.641 8.881-8.641 6.36-8.641 4.272-7.801 2.568-6.145 .864-4.489 0-2.424 0 0" />
</g>
</g>
</svg>